<svg width="169" height="148" viewBox="0 0 169 148" fill="none" xmlns="http://www.w3.org/2000/svg">
<path d="M164.137 52.032C158.255 42.756 150.207 37.694 137.791 35.155C137.678 25.886 134.791 20.364 131.908 15.685C122.056 -0.321022 100.4 -3.78502 86.164 4.81198L55.82 23.642L19.505 46.002L19.313 45.686L19.459 45.932C3.85 55.536 -6.524 74.473 5.539 94.328C14.617 109.072 36.222 117.457 53.968 106.369C59.127 103.191 65.872 102.598 70.416 109.969C74.327 116.031 71.355 122.772 64.908 126.065L78.124 147.249C94.986 137.206 103.871 116.14 92.223 97.218C80.718 78.538 57.232 76.73 43.055 85.632C37.897 88.814 29.784 87.196 26.534 81.915C22.344 74.833 25.79 69.148 31.44 65.668L31.413 65.622L67.435 43.436L96.469 25.97C110.506 17.323 123.067 36.072 108.352 44.969L101.036 49.641L113.019 69.092L126.017 61.254C138.939 53.296 151.28 71.67 137.446 80.358L103.346 101.358L115.928 121.786L153.866 98.765C164.086 92.471 175.704 70.547 164.137 52.032Z" fill="#E95E30"/>
</svg>
